HIERARCHY
ROOT Hips
{
	OFFSET -0.001795 -0.223333 0.028219
	CHANNELS 6 Xposition Yposition Zposition Zrotation Yrotation Xrotation 
	JOINT LeftUpLeg
	{
		OFFSET 0.069520 -0.091406 -0.006815
		CHANNELS 3 Zrotation Yrotation Xrotation
		JOINT LeftLeg
		{
			OFFSET 0.034277 -0.375199 -0.004496
			CHANNELS 3 Zrotation Yrotation Xrotation
			JOINT LeftFoot
			{
				OFFSET -0.013596 -0.397961 -0.043693
				CHANNELS 3 Zrotation Yrotation Xrotation
				JOINT LeftToe
				{
					OFFSET 0.026358 -0.055791 0.119288
					CHANNELS 3 Zrotation Yrotation Xrotation
					End Site
					{
						OFFSET 0.000000 0.000000 0.000000
					}
				}
			}
		}
	}
	JOINT RightUpLeg
	{
		OFFSET -0.067670 -0.090522 -0.004320
		CHANNELS 3 Zrotation Yrotation Xrotation
		JOINT RightLeg
		{
			OFFSET -0.038290 -0.382569 -0.008850
			CHANNELS 3 Zrotation Yrotation Xrotation
			JOINT RightFoot
			{
				OFFSET 0.015774 -0.398415 -0.042312
				CHANNELS 3 Zrotation Yrotation Xrotation
				JOINT RightToe
				{
					OFFSET -0.025372 -0.048144 0.123348
					CHANNELS 3 Zrotation Yrotation Xrotation
					End Site
					{
						OFFSET 0.000000 0.000000 0.000000
					}
				}
			}
		}
	}
	JOINT Spine
	{
		OFFSET -0.002533 0.108963 -0.026696
		CHANNELS 3 Zrotation Yrotation Xrotation
		JOINT Spine1
		{
			OFFSET 0.005487 0.135180 0.001092
			CHANNELS 3 Zrotation Yrotation Xrotation
			JOINT Spine2
			{
				OFFSET 0.001457 0.052922 0.025425
				CHANNELS 3 Zrotation Yrotation Xrotation
				JOINT Neck
				{
					OFFSET -0.002778 0.213870 -0.042857
					CHANNELS 3 Zrotation Yrotation Xrotation
					JOINT Head
					{
						OFFSET 0.005152 0.064970 0.051349
						CHANNELS 3 Zrotation Yrotation Xrotation
						End Site
						{
							OFFSET 0.000000 0.000000 0.000000
						}
					}
				}
				JOINT LeftShoulder
				{
					OFFSET 0.078845 0.121749 -0.034090
					CHANNELS 3 Zrotation Yrotation Xrotation
					JOINT LeftArm
					{
						OFFSET 0.090977 0.030469 -0.008868
						CHANNELS 3 Zrotation Yrotation Xrotation
						JOINT LeftForeArm
						{
							OFFSET 0.259612 -0.012772 -0.027456
							CHANNELS 3 Zrotation Yrotation Xrotation
							JOINT LeftHand
							{
								OFFSET 0.249234 0.008986 -0.001171
								CHANNELS 3 Zrotation Yrotation Xrotation
								End Site
								{
									OFFSET 0.000000 0.000000 0.000000
								}
							}
						}
					}
				}
				JOINT RightShoulder
				{
					OFFSET -0.081759 0.118833 -0.038615
					CHANNELS 3 Zrotation Yrotation Xrotation
					JOINT RightArm
					{
						OFFSET -0.096012 0.032551 -0.009143
						CHANNELS 3 Zrotation Yrotation Xrotation
						JOINT RightForeArm
						{
							OFFSET -0.253742 -0.013329 -0.021401
							CHANNELS 3 Zrotation Yrotation Xrotation
							JOINT RightHand
							{
								OFFSET -0.255298 0.007772 -0.005559
								CHANNELS 3 Zrotation Yrotation Xrotation
								End Site
								{
									OFFSET 0.000000 0.000000 0.000000
								}
							}
						}
					}
				}
			}
		}
	}
}
MOTION
Frames: 18
Frame Time: 0.050000
0.000000 0.933125 0.000000 -2.012073 -22.281937 1.504284 2.322411 -0.553992 -19.212768 -4.190242 1.214624 11.645707 5.780993 11.641383 8.145348 0.000000 0.000000 0.000000 4.434675 -0.292596 0.510627 5.416566 -0.140421 7.940393 -4.152548 -8.180001 -1.991956 0.000000 0.000000 0.000000 -3.216547 0.542611 18.586874 2.109546 -0.437009 -21.934083 0.653487 8.366209 29.143593 0.762906 0.172854 -21.277174 0.000000 0.000000 0.000000 -28.183311 -8.147844 5.831997 -47.126845 -15.974676 -2.637624 -5.230155 -29.540383 3.121003 0.000000 0.000000 0.000000 23.574777 12.797602 4.417787 58.611776 8.804716 -3.802266 4.920588 24.507557 1.898424 0.000000 0.000000 0.000000 
-0.008276 0.930014 0.011061 -2.419209 -20.546249 2.062146 3.665461 -0.340610 -19.858690 -5.608980 1.583072 12.223381 4.824511 10.090484 7.245034 0.000000 0.000000 0.000000 5.788387 -0.294922 0.058282 3.852546 0.099021 10.030856 -4.764913 -9.547526 -2.336372 0.000000 0.000000 0.000000 -4.456256 0.749812 18.822742 2.897969 -0.608884 -21.577691 1.443537 8.494935 28.421199 -0.102713 0.904776 -20.046664 0.000000 0.000000 0.000000 -29.596605 -7.460878 4.870954 -46.144661 -14.980141 -2.815613 -7.392088 -30.011594 3.679825 0.000000 0.000000 0.000000 22.088695 12.354803 4.602379 59.378726 9.963545 -3.324340 6.023975 26.395533 2.359069 0.000000 0.000000 0.000000 
-0.017223 0.929116 0.024710 -2.027138 -18.717453 1.542300 2.330666 -0.710291 -18.899100 -4.259322 1.191299 13.007979 5.035349 10.611989 4.591488 0.000000 0.000000 0.000000 4.859131 -0.128725 -0.845170 4.673587 0.179386 14.779548 -5.184865 -9.710876 -4.361219 0.000000 0.000000 0.000000 -4.588535 0.741866 19.375558 2.113792 -0.358270 -22.036474 1.902757 8.098037 28.187361 -1.035227 1.644909 -19.811115 0.000000 0.000000 0.000000 -29.245437 -7.349861 4.412498 -47.062453 -13.590104 -3.212946 -6.530450 -28.143034 3.169342 0.000000 0.000000 0.000000 21.064863 12.368701 4.848812 59.444840 11.886009 -2.384802 5.697318 26.665676 2.345136 0.000000 0.000000 0.000000 
-0.027003 0.928394 0.041403 -1.823579 -19.076396 1.058569 3.200281 -0.526640 -17.316844 -5.534179 1.529537 12.485870 4.691166 9.953894 4.349886 0.000000 0.000000 0.000000 4.524531 0.178905 -3.083828 6.566068 0.201131 21.132799 -5.770389 -11.653116 -3.668039 0.000000 0.000000 0.000000 -5.970017 0.946933 18.263119 2.837599 -0.523167 -22.225354 1.965963 9.514134 29.858543 -2.002969 2.495848 -19.543566 0.000000 0.000000 0.000000 -29.895322 -7.184734 3.944598 -47.001198 -12.434904 -3.692389 -6.073806 -27.285025 2.926446 0.000000 0.000000 0.000000 21.680134 14.693972 6.583004 58.999764 13.218184 -1.892248 5.940487 27.735059 2.576129 0.000000 0.000000 0.000000 
-0.037738 0.928369 0.060066 -1.645169 -17.620736 -0.603832 2.521478 -0.662771 -15.174501 -4.327817 1.234309 13.890432 4.320574 9.292061 3.297484 0.000000 0.000000 0.000000 2.180568 0.697230 -6.844817 11.878822 -0.875993 31.302766 -5.292988 -12.924271 0.912450 0.000000 0.000000 0.000000 -6.576713 0.974587 18.159453 2.860999 -0.633685 -20.562613 1.584788 10.347040 29.011725 -1.485266 2.412248 -18.863481 0.000000 0.000000 0.000000 -28.989427 -7.679026 3.499932 -47.125554 -10.432688 -4.162317 -6.052266 -27.884680 2.922168 0.000000 0.000000 0.000000 20.878544 13.732235 6.495793 59.130451 14.662070 -1.155997 8.173457 28.467129 3.280813 0.000000 0.000000 0.000000 
-0.049623 0.929886 0.079243 -1.731770 -16.079144 -1.918666 3.168182 -0.539912 -12.963196 -5.175855 1.476316 14.829855 3.632102 7.880758 1.632344 0.000000 0.000000 0.000000 -1.529685 1.212789 -12.110918 18.394438 -3.496899 40.989277 -4.957939 -14.344462 7.495952 0.000000 0.000000 0.000000 -7.023516 0.984321 18.312261 2.956921 -0.695492 -19.686575 1.679798 10.255961 28.886696 -2.067058 2.960440 -19.401152 0.000000 0.000000 0.000000 -29.455951 -7.643136 3.087344 -46.985629 -9.195269 -4.498989 -5.358162 -28.669908 2.800765 0.000000 0.000000 0.000000 19.327403 14.430355 6.950547 60.089398 15.218708 -0.798081 9.363588 31.405967 4.070945 0.000000 0.000000 0.000000 
-0.063189 0.931434 0.097943 -2.081595 -13.074251 -2.481395 3.684837 -0.473674 -11.302133 -4.925895 1.263725 14.945593 2.533830 5.576456 0.933302 0.000000 0.000000 0.000000 -3.654577 1.375540 -15.332787 19.074379 -4.693563 44.106330 -6.273604 -16.694756 6.772688 0.000000 0.000000 0.000000 -6.649799 0.799528 18.540540 3.291368 -0.720154 -19.847640 1.164084 9.159015 28.850830 -1.823327 2.880738 -19.450600 0.000000 0.000000 0.000000 -28.524284 -7.038638 2.390249 -47.478989 -8.682705 -4.628276 -6.915338 -29.454607 3.260835 0.000000 0.000000 0.000000 17.726088 14.208287 6.849539 61.864394 15.778530 -0.386317 8.836439 32.889938 4.240364 0.000000 0.000000 0.000000 
-0.077985 0.933098 0.115806 -2.485666 -10.172275 -2.881140 4.777646 -0.343532 -9.888924 -4.499952 1.023488 15.353171 1.642564 3.346225 -0.620419 0.000000 0.000000 0.000000 -4.704632 1.388988 -17.246103 15.749030 -3.815836 42.358274 -5.937416 -15.436232 3.829096 0.000000 0.000000 0.000000 -6.561401 0.659507 18.525002 3.493532 -0.750527 -19.359274 1.004598 7.701596 28.941768 -2.403933 3.276029 -18.806446 0.000000 0.000000 0.000000 -28.570059 -6.899352 2.169974 -47.014583 -9.901818 -4.120624 -7.355970 -30.169165 3.444622 0.000000 0.000000 0.000000 17.499904 14.575678 7.087428 61.721994 16.786245 0.146898 8.749094 34.109374 4.421255 0.000000 0.000000 0.000000 
-0.094167 0.934727 0.132530 -2.399821 -7.914345 -3.152434 5.223613 -0.296512 -8.792182 -4.109933 0.815424 15.444864 0.884084 1.617921 -0.831968 0.000000 0.000000 0.000000 -5.376721 1.263521 -17.440801 9.883158 -1.553809 37.378951 -4.593736 -12.233513 2.837082 0.000000 0.000000 0.000000 -6.788090 0.621260 18.767351 4.105252 -0.865633 -19.516251 0.614433 7.340676 29.299282 -2.408586 3.421583 -18.992188 0.000000 0.000000 0.000000 -29.113751 -7.102640 1.905007 -46.779355 -11.765139 -3.330853 -8.230804 -30.832005 3.728314 0.000000 0.000000 0.000000 16.560586 14.639215 7.249410 62.070826 17.539642 0.584141 9.559313 34.569168 4.820389 0.000000 0.000000 0.000000 
-0.112233 0.934917 0.147832 -2.079701 -5.317363 -2.495814 5.640763 -0.311820 -8.765055 -3.201469 0.467513 15.819973 -0.707961 -2.469415 -2.091265 0.000000 0.000000 0.000000 -5.979283 1.147280 -17.844575 4.239980 0.225867 30.599823 -2.480340 -7.005931 1.825389 0.000000 0.000000 0.000000 -6.237144 0.422498 18.117544 3.609059 -0.621436 -20.187923 0.288460 6.494712 30.077456 -2.791059 3.776476 -19.497062 0.000000 0.000000 0.000000 -28.410721 -7.038813 1.650360 -48.074407 -13.727359 -2.630736 -8.227074 -31.366428 3.796112 0.000000 0.000000 0.000000 16.129037 14.671206 7.414829 62.826854 18.441820 1.093991 9.654983 34.852711 4.991776 0.000000 0.000000 0.000000 
-0.132797 0.934437 0.161902 -2.313400 -2.484111 -2.178448 6.980291 -0.257241 -8.643434 -2.244309 0.104222 15.210855 -2.208816 -6.155213 -2.420787 0.000000 0.000000 0.000000 -7.122138 0.905614 -17.873208 0.684538 0.877186 22.885968 1.478928 1.059748 4.573743 0.000000 0.000000 0.000000 -5.947531 0.294984 18.959271 4.666060 -0.813202 -20.800388 -0.537879 6.839807 29.670895 -2.429504 3.790661 -18.037295 0.000000 0.000000 0.000000 -28.112401 -7.751999 1.258009 -48.720220 -14.556201 -2.024274 -9.518573 -31.977386 4.106231 0.000000 0.000000 0.000000 17.103317 14.905255 8.172394 62.545989 19.300032 1.616953 9.014717 35.548545 5.023361 0.000000 0.000000 0.000000 
-0.156804 0.932418 0.174208 -2.011064 0.112554 -1.873362 7.402610 -0.308420 -9.446121 -0.353541 -0.467706 15.585148 -3.343570 -8.742983 -2.237447 0.000000 0.000000 0.000000 -7.565691 0.706791 -16.706000 -2.050080 1.216317 16.928817 4.653712 6.669118 7.520843 0.000000 0.000000 0.000000 -5.570445 0.144171 19.243533 4.604569 -0.768226 -20.397788 -0.738104 6.939589 29.332153 -1.653642 3.402609 -16.387931 0.000000 0.000000 0.000000 -28.981645 -8.667731 1.078509 -48.055073 -15.941243 -1.211738 -10.269769 -31.462442 4.124288 0.000000 0.000000 0.000000 17.508107 15.272995 8.840397 62.273054 20.181683 2.117590 9.041727 35.493813 5.079281 0.000000 0.000000 0.000000 
-0.184635 0.928453 0.184662 -1.998220 3.212480 -1.545161 8.640354 -0.346793 -11.494284 1.207223 -1.042425 17.134147 -4.234068 -10.239748 -1.344696 0.000000 0.000000 0.000000 -7.695894 0.542589 -15.379159 -0.552943 0.679396 15.924248 4.801405 7.529044 7.068908 0.000000 0.000000 0.000000 -5.145702 -0.051821 20.670192 4.266358 -0.585419 -20.691684 -0.914118 6.941055 28.405193 -1.210832 3.206330 -14.820287 0.000000 0.000000 0.000000 -28.797950 -10.056138 1.161490 -47.542071 -16.479535 -0.673218 -10.141493 -29.332462 3.651765 0.000000 0.000000 0.000000 18.411986 15.596339 9.641774 62.561511 21.941123 3.256466 8.312197 35.780988 4.944385 0.000000 0.000000 0.000000 
-0.214579 0.926118 0.192159 -2.152816 4.918043 -1.523554 9.947664 -0.321239 -13.059036 2.663107 -1.637524 19.079964 -4.658424 -11.299833 -1.365477 0.000000 0.000000 0.000000 -6.601550 0.637475 -15.756917 -0.006370 0.515741 17.508909 4.504096 7.449120 6.295236 0.000000 0.000000 0.000000 -4.304425 -0.309909 21.987096 3.922567 -0.438362 -20.917420 -0.973187 7.005688 28.473996 -0.841796 3.034122 -14.251455 0.000000 0.000000 0.000000 -28.807876 -10.353898 0.904206 -47.726447 -16.490658 -0.543504 -11.156431 -29.826026 3.922170 0.000000 0.000000 0.000000 19.547901 15.468463 10.127393 61.064796 23.003185 3.485425 10.242057 36.296361 5.713442 0.000000 0.000000 0.000000 
-0.243656 0.926740 0.197648 -2.438519 6.147191 -1.194245 11.741453 -0.232055 -14.314216 3.152814 -1.842538 19.353428 -4.904468 -10.409386 0.454707 0.000000 0.000000 0.000000 -5.492398 0.767859 -16.145100 2.168662 -0.143413 17.707219 2.968905 4.637402 5.276422 0.000000 0.000000 0.000000 -3.801804 -0.520879 23.523463 3.713535 -0.350204 -20.986648 -0.872272 7.276898 27.575744 -1.961053 3.971817 -14.598980 0.000000 0.000000 0.000000 -28.614349 -10.349765 0.473837 -48.299806 -16.446905 -0.360745 -9.807800 -29.059573 3.403025 0.000000 0.000000 0.000000 19.795799 15.689924 10.542082 60.924599 23.799823 4.000770 11.184323 36.072200 5.980223 0.000000 0.000000 0.000000 
-0.269631 0.928188 0.201350 -2.310121 7.610364 -0.538741 12.470651 -0.254754 -15.975549 3.144332 -1.878368 19.238408 -4.545523 -8.678779 1.675759 0.000000 0.000000 0.000000 -4.326152 0.907836 -16.468460 2.888449 -0.419928 17.760307 1.557148 2.051565 4.091596 0.000000 0.000000 0.000000 -3.065747 -0.791438 24.442570 3.418989 -0.193468 -21.826097 -1.061975 7.116118 27.817767 -2.354892 4.328500 -14.686237 0.000000 0.000000 0.000000 -28.389214 -10.589185 0.358922 -48.858184 -16.643974 -0.211726 -9.739708 -28.898067 3.330156 0.000000 0.000000 0.000000 20.089624 15.129411 10.529545 60.034904 23.996308 3.885558 13.459599 35.941038 6.753077 0.000000 0.000000 0.000000 
-0.291294 0.930241 0.203565 -2.141254 8.927919 -0.288067 12.687023 -0.314390 -17.184163 2.788740 -1.848149 19.445510 -3.576463 -4.988281 3.928569 0.000000 0.000000 0.000000 -3.306720 1.041747 -16.986566 3.628621 -0.724644 18.536705 0.608857 0.140053 3.518425 0.000000 0.000000 0.000000 -2.690857 -1.038241 25.947238 3.212027 -0.081824 -22.385435 -1.309336 6.640985 27.376389 -2.990783 4.762590 -14.503780 0.000000 0.000000 0.000000 -27.803555 -10.807914 0.483383 -49.491036 -17.248050 0.044586 -8.732494 -28.589733 3.027914 0.000000 0.000000 0.000000 20.415423 14.497628 10.319684 59.890060 23.926801 3.803973 13.806621 34.583373 6.548892 0.000000 0.000000 0.000000 
-0.308966 0.931897 0.204545 -1.784179 10.857169 0.186981 12.336308 -0.480459 -18.469273 1.925811 -1.675620 19.382376 -2.310586 -1.873086 4.684708 0.000000 0.000000 0.000000 -3.014468 1.006350 -16.404318 4.233507 -0.974266 17.569459 -0.326953 -1.771903 2.927033 0.000000 0.000000 0.000000 -2.225740 -1.345284 26.977739 2.789540 0.088360 -22.984027 -1.174746 5.576817 27.454558 -3.716370 5.270137 -15.326090 0.000000 0.000000 0.000000 -27.737534 -11.542282 0.952697 -49.545978 -17.504638 0.160949 -8.552123 -29.448417 3.074707 0.000000 0.000000 0.000000 19.650949 13.870741 9.814476 59.400547 23.459639 3.499178 14.452405 33.861084 6.599622 0.000000 0.000000 0.000000 
